<svg id="レイヤー_1" data-name="レイヤー 1" xmlns="http://www.w3.org/2000/svg" viewBox="0 0 332.31 92.85"><defs><style>.cls-1{fill:#ffffff;}</style></defs><path class="cls-1" d="M1.52,84.16-17.69,97V88.37L1.52,75.5Zm-58.1,61.57v-4.91A1.45,1.45,0,0,0-58,139.38h-9.43a1.45,1.45,0,0,1-1.44-1.44V124.8l-8.8,5.9v7.24a1.45,1.45,0,0,1-1.44,1.44h-9.43A1.45,1.45,0,0,0-90,140.82v4.91a1.45,1.45,0,0,0,1.44,1.44H-58A1.45,1.45,0,0,0-56.58,145.73Zm-28.9-37.09h6.35a1.45,1.45,0,0,1,1.44,1.44v12.63l8.8-5.9v-6.73a1.45,1.45,0,0,1,1.44-1.44h6.35a1.44,1.44,0,0,0,1.44-1.44v-4.9a1.44,1.44,0,0,0-1.44-1.44H-85.48a1.44,1.44,0,0,0-1.44,1.44v4.9A1.44,1.44,0,0,0-85.48,108.64Zm34.81,18H-46a1.44,1.44,0,0,1,1.44,1.44v17.61a1.45,1.45,0,0,0,1.44,1.44h20.49a1.45,1.45,0,0,0,1.44-1.44v-4.91a1.45,1.45,0,0,0-1.44-1.44H-34.33a1.45,1.45,0,0,1-1.44-1.44v-9.82a1.45,1.45,0,0,1,1.44-1.44H-23.5a1.44,1.44,0,0,0,1.44-1.44v-4.91a1.44,1.44,0,0,0-1.44-1.44H-34.33a1.45,1.45,0,0,1-1.44-1.44v-7.37a1.45,1.45,0,0,1,1.44-1.44h9.06a1.44,1.44,0,0,0,1.44-1.44v-4.9a1.44,1.44,0,0,0-1.44-1.44h-24a1.44,1.44,0,0,0-1.44,1.44v4.9a1.44,1.44,0,0,0,1.44,1.44H-46a1.44,1.44,0,0,1,1.44,1.44v7.37A1.44,1.44,0,0,1-46,118.89h-4.65a1.45,1.45,0,0,0-1.44,1.44v4.91A1.45,1.45,0,0,0-50.67,126.68Zm72.64,19V102.3a1.44,1.44,0,0,1,1.44-1.44H48.72a1.43,1.43,0,0,1,1.44,1.44v43.43a1.44,1.44,0,0,1-1.44,1.44H23.41A1.45,1.45,0,0,1,22,145.73Zm8.81-7.79a1.44,1.44,0,0,0,1.43,1.44h7.71a1.45,1.45,0,0,0,1.44-1.44V109.75a1.44,1.44,0,0,0-1.44-1.44H32.21a1.43,1.43,0,0,0-1.43,1.44Zm53.59-37.08H59.22a1.44,1.44,0,0,0-1.44,1.44v4.9a1.44,1.44,0,0,0,1.44,1.44H75.56A1.45,1.45,0,0,1,77,110.08v2.83a2.58,2.58,0,0,1-1.28,2.1l-8.53,4.44a2.61,2.61,0,0,0-1.28,2.1v15.09a2.69,2.69,0,0,1-2.64,2.74H60.41A1.45,1.45,0,0,0,59,140.82v4.91a1.45,1.45,0,0,0,1.44,1.44h6.74a7.78,7.78,0,0,0,7.57-7.45v-13.5a2.6,2.6,0,0,1,1.27-2.1l8.54-4.43a2.63,2.63,0,0,0,1.28-2.11V102.3A1.44,1.44,0,0,0,84.37,100.86ZM13.76,127.53V102.3a1.44,1.44,0,0,0-1.44-1.44H-10.24a1.43,1.43,0,0,0-1.44,1.44v14.43a4,4,0,0,1-1,2.45L-15.51,122a1.44,1.44,0,0,0,0,2l2.83,2.84a1.55,1.55,0,0,0,2.1.06L-4,121.07a3.61,3.61,0,0,0,1.08-2.39v-8.93a1.44,1.44,0,0,1,1.44-1.44H3.51A1.44,1.44,0,0,1,5,109.75V124.9a4.21,4.21,0,0,1-1,2.48L-9.91,141.83a1.55,1.55,0,0,0,0,2.09l3.24,3.45a1.4,1.4,0,0,0,2,0L12.74,130A4,4,0,0,0,13.76,127.53Zm109.53-14.59H96.16a3.31,3.31,0,1,0,0,6.61h10.6v24.31a3.31,3.31,0,1,0,6.61,0V119.55h9.92a3.31,3.31,0,0,0,0-6.61Zm42.52,10.5a10.17,10.17,0,0,0-10.4-10.4h-17.6a3.31,3.31,0,0,0-3.31,3.3v27.52a3.31,3.31,0,1,0,6.62,0V119.65h14.29a3.56,3.56,0,0,1,3.79,3.79,4.16,4.16,0,0,1-3.79,4.28h-6a3.3,3.3,0,0,0-2.42,5.55l11.91,12.84a3.31,3.31,0,0,0,4.85-4.5l-6.86-7.39A10.91,10.91,0,0,0,165.81,123.44Zm62.59-3.69H239a3.31,3.31,0,0,0,0-6.62H228.4a17.76,17.76,0,0,0-11.55,4c-3.49,3-5.33,7.24-5.33,12.39a17.13,17.13,0,0,0,16.88,17.31h10.51a3.31,3.31,0,0,0,3.3-3.31V128.69a3.3,3.3,0,0,0-3.3-3.3h-9.63a3.31,3.31,0,1,0,0,6.61h6.32v8.17h-7.2a10.5,10.5,0,0,1-10.27-10.7C218.13,122.3,223.44,119.75,228.4,119.75ZM194.57,113H177a3.3,3.3,0,0,0-3.3,3.3v27.52a3.31,3.31,0,1,0,6.61,0V119.65h14.3a3.56,3.56,0,0,1,3.79,3.79,4.16,4.16,0,0,1-3.79,4.28h-6a3.31,3.31,0,1,0,0,6.61h6c5.64,0,10.4-5,10.4-10.89A10.17,10.17,0,0,0,194.57,113ZM34.11,162.85a1.4,1.4,0,0,1-1.4,1.4H28.29a1.4,1.4,0,1,1,0-2.8h4.42A1.4,1.4,0,0,1,34.11,162.85ZM59.65,156a1.39,1.39,0,0,0-1.4,1.39v9.37a1.4,1.4,0,1,0,2.79,0V157.4A1.39,1.39,0,0,0,59.65,156ZM47,162.7l2.34-1.77a1.4,1.4,0,0,0,.54-.93,1.35,1.35,0,0,0-.27-1,1.4,1.4,0,0,0-2-.27l-3.84,2.91V157.4a1.4,1.4,0,0,0-2.8,0v9.37a1.4,1.4,0,0,0,2.8,0v-1.65l1-.73,2.64,3.26a1.39,1.39,0,0,0,1.09.52,1.36,1.36,0,0,0,.88-.32,1.39,1.39,0,0,0,.2-2Zm-27.72.68a5.13,5.13,0,0,1-5.26,5,5,5,0,1,1,0-9.95A5.13,5.13,0,0,1,19.26,163.38ZM14,161.2a2.19,2.19,0,1,0,0,4.35,2.19,2.19,0,1,0,0-4.35Zm-17.95-2.15h-6.48a1.4,1.4,0,0,0-1.4,1.4V167a1.4,1.4,0,0,0,1.4,1.4A1.4,1.4,0,0,0-9,167v-5.1h1.62V167a1.4,1.4,0,0,0,1.4,1.4,1.4,1.4,0,0,0,1.4-1.4v-5.1h.66c.94,0,1.05.88,1.05,1.25V167a1.4,1.4,0,0,0,1.39,1.4A1.4,1.4,0,0,0-.11,167V163.1A3.81,3.81,0,0,0-3.95,159.05Zm-18.37,6.32h-5.26v-1.9h5.14a1.39,1.39,0,0,0,1.4-1.4,1.39,1.39,0,0,0-1.4-1.39h-5.14V158.8h5.14a1.39,1.39,0,0,0,1.4-1.4,1.39,1.39,0,0,0-1.4-1.39H-29a1.4,1.4,0,0,0-1.4,1.39v9.37a1.4,1.4,0,0,0,1.4,1.4h6.66a1.4,1.4,0,0,0,1.4-1.4A1.4,1.4,0,0,0-22.32,165.37Zm181.59-5.12a3.58,3.58,0,0,0-3.65-3.66h-5.81a1.32,1.32,0,0,0-1.32,1.32V167a1.32,1.32,0,1,0,2.63,0v-7.76h4.5a1,1,0,0,1,1,1,1.14,1.14,0,0,1-1,1.19h-2a1.32,1.32,0,0,0-1,2.21l3.93,4.24a1.32,1.32,0,1,0,1.93-1.79l-2-2.15A3.83,3.83,0,0,0,159.27,160.25Zm16.1-3.66h-5.81a1.32,1.32,0,0,0-1.32,1.32V167a1.32,1.32,0,1,0,2.63,0v-7.76h4.5a1,1,0,0,1,1,1,1.16,1.16,0,0,1-1,1.19h-2a1.32,1.32,0,1,0,0,2.63h2a3.8,3.8,0,0,0,3.66-3.82A3.59,3.59,0,0,0,175.37,156.59Zm-95.86,6.79a5.27,5.27,0,1,1-5.26-5A5.13,5.13,0,0,1,79.51,163.38Zm-5.26-2.18a2.19,2.19,0,1,0,2.47,2.18A2.34,2.34,0,0,0,74.25,161.2Zm122.25-.53h-3.18a1.32,1.32,0,0,0,0,2.63h1.86v2.25H193a3.24,3.24,0,0,1-3.16-3.31,2.87,2.87,0,0,1,3.16-3h3.5a1.32,1.32,0,1,0,0-2.63H193a6.12,6.12,0,0,0-4,1.35,5.4,5.4,0,0,0-1.84,4.26,5.88,5.88,0,0,0,5.8,5.94h3.47a1.32,1.32,0,0,0,1.31-1.32V162A1.32,1.32,0,0,0,196.5,160.67ZM92.77,158.54a6.71,6.71,0,0,0-3.64,1.2v-.69a1.4,1.4,0,1,0-2.8,0V167a1.4,1.4,0,0,0,2.8,0v-3.23a4.49,4.49,0,0,1,3.64-2.38,1.4,1.4,0,1,0,0-2.8Zm45.93-2h-9a1.32,1.32,0,0,0,0,2.63H133V167a1.32,1.32,0,1,0,2.63,0v-7.8h3a1.32,1.32,0,0,0,0-2.63Zm-33.57,1.84a5,5,0,1,0,0,9.95h2.09a1.4,1.4,0,1,0,0-2.8h-2.09a2.19,2.19,0,1,1,0-4.35A2.63,2.63,0,0,1,107,162h-1.16a1.4,1.4,0,1,0,0,2.79H109a1.4,1.4,0,0,0,1.4-1.39A5.14,5.14,0,0,0,105.13,158.4Z" transform="translate(90 -75.5)"/></svg>
